<svg width="639" height="174" viewBox="0 0 639 174" fill="none" xmlns="http://www.w3.org/2000/svg">
<g clip-path="url(#clip0)">
<path d="M85.6362 22.8682H52.8823L0 85.0883L52.8823 147.308H85.6362L32.7539 85.0883L85.6362 22.8682ZM148.364 22.8682H181.118L234 85.0883L181.118 147.308H148.364L201.246 85.0883L148.364 22.8682ZM133.625 1.06653L144.974 3.43406C146.764 3.80878 147.869 5.40984 147.469 7.0109L104.622 171.699C104.203 173.283 102.413 174.288 100.623 173.93L89.2925 171.563C87.5024 171.188 86.398 169.587 86.7979 167.986L129.645 3.2978C130.063 1.71377 131.854 0.708847 133.625 1.06653Z" fill="black"/>
</g>
<path d="M347.377 129.615C345.989 131.061 345.309 132.933 345.336 134.805C345.363 136.677 346.088 138.531 347.52 139.941L347.628 140.048C349.043 141.378 350.851 142.026 352.651 141.999C354.45 141.973 356.241 141.272 357.62 139.897C373.432 124.231 389.074 108.307 404.788 92.5254C404.85 92.4811 404.904 92.4367 404.958 92.3835C406.346 90.9375 407.026 89.048 406.999 87.1762C406.972 85.3044 406.238 83.4415 404.806 82.031L404.564 81.8004C388.922 66.2406 373.298 50.6275 357.611 35.0944C356.241 33.7282 354.45 33.0274 352.651 33.0008C350.851 32.9742 349.043 33.6218 347.628 34.9613L347.494 35.0944C346.088 36.496 345.363 38.3412 345.336 40.2041C345.309 42.067 345.989 43.9476 347.377 45.3936L389.656 87.327L347.377 129.615ZM301.024 127.841C299.645 129.278 298.974 131.15 299.001 133.013C299.028 134.885 299.753 136.739 301.185 138.149L301.293 138.256C302.699 139.586 304.516 140.234 306.316 140.216C308.116 140.19 309.915 139.489 311.285 138.114C326.766 122.776 342.757 107.695 358.444 92.5432C358.506 92.4988 358.569 92.4456 358.632 92.3924C360.02 90.9464 360.7 89.0569 360.673 87.1851C360.646 85.3133 359.912 83.4504 358.48 82.0399C342.82 67.0035 327.079 52.0203 311.384 37.0016L311.276 36.8863C309.906 35.5202 308.116 34.8282 306.316 34.8016C304.516 34.775 302.708 35.4226 301.293 36.7532L301.159 36.8863C299.753 38.2879 299.028 40.142 299.001 41.996C298.974 43.8589 299.654 45.7396 301.042 47.1856L343.285 87.3181L301.024 127.841Z" fill="black"/>
<path fill-rule="evenodd" clip-rule="evenodd" d="M508.753 80.2425H602.744V52.5659H572.8C569.656 52.5659 565.281 50.9188 563.209 48.9057C561.138 46.8926 559.877 43.2606 559.877 40.2198V10.7553H483.792C483.532 10.7553 483.329 10.882 483.198 11.0087C482.981 11.1495 482.923 11.3325 482.923 11.6V161.456C482.923 161.653 483.053 161.907 483.184 162.034C483.314 162.231 483.589 162.287 483.778 162.287C516.779 162.287 567.932 162.287 601.86 162.287C602.121 162.287 602.106 162.16 602.251 162.034C602.454 161.907 602.729 161.639 602.729 161.456V145.746H508.753C502.756 145.746 497.801 140.959 497.801 135.103V90.8711C497.801 85.0289 502.727 80.2425 508.753 80.2425ZM514.722 94.8832H533.83C537.988 94.8832 541.102 95.8405 543.188 97.7691C545.26 99.6978 546.289 102.429 546.289 105.99C546.289 109.637 545.159 112.494 542.899 114.55C540.639 116.605 537.191 117.633 532.555 117.633H526.253V130.992H514.722V94.8832ZM526.239 110.326H529.064C531.295 110.326 532.859 109.946 533.757 109.2C534.656 108.454 535.105 107.497 535.105 106.328C535.105 105.188 534.714 104.231 533.931 103.442C533.149 102.654 531.686 102.26 529.513 102.26H526.224V110.326H526.239ZM551.649 94.8832H568.714C572.075 94.8832 574.799 95.3337 576.87 96.2065C578.942 97.0934 580.651 98.3604 582.013 100.022C583.36 101.683 584.346 103.611 584.94 105.807C585.548 108.004 585.852 110.34 585.852 112.804C585.852 116.661 585.403 119.66 584.49 121.786C583.592 123.911 582.332 125.699 580.724 127.135C579.116 128.571 577.392 129.528 575.552 130.007C573.031 130.669 570.757 130.992 568.714 130.992H551.649V94.8832ZM563.108 103.062V122.785H565.933C568.338 122.785 570.047 122.518 571.076 122.011C572.09 121.49 572.886 120.589 573.466 119.308C574.045 118.013 574.335 115.929 574.335 113.043C574.335 109.214 573.698 106.61 572.408 105.188C571.119 103.78 568.99 103.076 566.005 103.076H563.108V103.062ZM591.14 94.8832H619.534V102.654H602.671V108.961H617.1V116.281H602.671V131.006H591.154V94.8832H591.14ZM613.652 80.2425H628.038C634.064 80.2425 638.99 85.043 638.99 90.8852V135.117C638.99 140.959 634.05 145.76 628.038 145.76H613.652V164.835C613.652 167.101 612.711 169.115 611.19 170.607C609.654 172.099 607.582 173 605.25 173C562.601 173 523.269 173 480.402 173C478.07 173 475.998 172.099 474.463 170.607C472.927 169.115 472 167.101 472 164.835V8.23541C472 5.96891 472.942 3.95581 474.463 2.46359C475.998 0.971357 478.128 0.0703882 480.402 0.0703882H565.469C565.658 0 565.86 0 566.063 0C566.99 0 567.932 0.394174 568.598 0.971356H568.729C568.859 1.04174 568.932 1.09806 569.062 1.22475L612.508 43.9644C613.247 44.6824 613.783 45.6538 613.783 46.7518C613.783 47.0756 613.71 47.329 613.652 47.6669V80.2425V80.2425ZM569.801 39.3751V12.5854L600.846 43.1339H573.669C572.597 43.1339 571.67 42.6834 570.931 42.0358C570.264 41.3882 569.801 40.4169 569.801 39.3751Z" fill="black"/>
<defs>
<clipPath id="clip0">
<rect width="234" height="173" fill="white" transform="translate(0 1)"/>
</clipPath>
</defs>
</svg>
